<?xml version="1.0" encoding="utf-8"?>
<!-- Generator: Adobe Illustrator 16.0.0, SVG Export Plug-In . SVG Version: 6.00 Build 0)  -->
<!DOCTYPE svg PUBLIC "-//W3C//DTD SVG 1.1//EN" "http://www.w3.org/Graphics/SVG/1.1/DTD/svg11.dtd">
<svg version="1.1" id="Layer_2" xmlns="http://www.w3.org/2000/svg" xmlns:xlink="http://www.w3.org/1999/xlink" x="0px" y="0px"
	 width="784.424px" height="161.5px" viewBox="0 0 784.424 161.5" enable-background="new 0 0 784.424 161.5" xml:space="preserve">
<circle cx="3.5" cy="157.5" r="3.5"/>
<circle cx="3.5" cy="137" r="3.5"/>
<circle cx="3.5" cy="116.2" r="3.5"/>
<circle cx="3.5" cy="95.501" r="3.5"/>
<circle cx="3.5" cy="76.101" r="3.5"/>
<circle cx="22.9" cy="147.3" r="4"/>
<circle cx="22.9" cy="126.8" r="4"/>
<circle cx="22.9" cy="106" r="4"/>
<circle cx="22.9" cy="85.301" r="4"/>
<circle cx="22.9" cy="65.9" r="4"/>
<circle cx="43" cy="75.099" r="4.85"/>
<path d="M47.85,95.898c0,2.68-2.172,4.854-4.85,4.854s-4.85-2.174-4.85-4.854c0-2.678,2.172-4.85,4.85-4.85
	S47.85,93.221,47.85,95.898z"/>
<circle cx="60.3" cy="45.898" r="5.699"/>
<circle cx="78.3" cy="35.798" r="7"/>
<circle cx="60.3" cy="65.199" r="5.699"/>
<circle cx="60.3" cy="85.999" r="5.699"/>
<circle cx="60.3" cy="106.599" r="5.699"/>
<circle cx="78.3" cy="55.099" r="7"/>
<circle cx="78.3" cy="75.799" r="7"/>
<circle cx="78.3" cy="96.599" r="7"/>
<circle cx="78.3" cy="117.1" r="7"/>
<text id="NeuralClocksText" transform="matrix(1 0 0 1 136 115.1006)" display="none" fill="#FC0000" stroke="#FF0000" stroke-width="3" stroke-miterlimit="10" font-family="'Florencesans-Bold'" font-size="102" letter-spacing="-3">NeuralClocks</text>
<polygon points="188.5,95 154.5,44 140.5,44 140.5,118 155.5,118 155.5,67.888 188.75,118 203.5,118 203.5,44 188.5,44 "/>
<path d="M238.25,58.333c-8.47,0-14.755,1.962-20.793,8.073c-6.112,6.111-9.211,13.504-9.211,21.971
	c0,8.472,2.588,16.279,8.692,22.311c6.043,6.116,15.396,8.77,22.388,8.77c7.092,0,10.979-2.544,13.008-3.79
	c4.75-2.917,7.778-5.935,9.833-9.334c1.798-3.135,2.834-5.3,3.25-6.833L250,99.583l-0.702,0.874
	c-3.814,4.705-6.631,5.876-10.631,5.876c-3.907,0-6.76-0.422-9.935-3c-3.899-3.166-4.704-5.333-5.315-9.333h42.75l0.167-2.083
	c0.108-0.934,0.167-3.531,0.167-4.333c0-8.466-1.471-14.991-7.583-21.104C252.803,60.367,246.715,58.333,238.25,58.333z
	 M223.833,83.333c-0.167-3.166,1.417-6.167,3.583-8.667s5.079-4.083,9.956-4.083s8.96,1.167,11.71,4.75c2.524,3.289,3,6.083,3,7.75
	L223.833,83.333z"/>
<path d="M312.5,93.681c0,3.233-0.956,5.965-3.457,8.295c-1.314,1.099-2.638,1.963-4.221,2.569c-1.548,0.595-3.193,0.896-5.032,0.896
	c-1.84,0-3.521-0.301-5.068-0.896c-1.583-0.606-3.035-1.471-4.284-2.513c-1.246-1.16-2.231-2.455-2.917-3.851
	c-0.674-1.365-1.021-2.879-1.021-4.501V60h-14v33.681c0,6.805,2.24,12.799,6.616,17.819c4.63,5.279,12.237,7.957,19.118,7.957
	c5.033,0,12.516-4.374,14.266-8.957v7.5h15V60h-15V93.681z"/>
<path d="M364.25,58.875c-4.349,1.141-10.25,4.375-12.75,8.723V60h-14v58h14V82.971c0-1.389,1.82-4.699,3.342-6.221
	c1.454-1.454,4.404-2.958,7.221-3.063s7.438-0.063,7.438-0.063V58.618C368.5,58.478,365.75,58.481,364.25,58.875z"/>
<path d="M417.5,64.393c-5-4.78-11.435-7.199-18.683-7.199c-4.132,0-7.965,0.78-11.505,2.318c-3.567,1.55-6.727,3.969-9.398,7.138
	c-5.545,5.972-8.342,13.281-8.342,21.727c0,8.375,2.782,15.648,8.238,21.599c5.576,6.291,12.568,9.481,21.003,9.481
	c7.343,0,13.687-2.402,18.687-7.15V118h14V60h-14V64.393z M412.764,100.474c-3.342,3.342-7.299,4.967-12.098,4.967
	c-4.8,0-8.756-1.625-12.098-4.967c-3.342-3.341-4.967-7.298-4.967-12.097s1.625-8.756,4.967-12.098
	c3.343-3.342,7.3-4.967,12.098-4.967c4.797,0,8.754,1.625,12.098,4.967c3.342,3.343,4.967,7.3,4.967,12.098
	S416.105,97.132,412.764,100.474z"/>
<rect x="440.5" y="42" width="14" height="76"/>
<g>
	<g>
		<linearGradient id="SVGID_1_" gradientUnits="userSpaceOnUse" x1="457.0869" y1="79.4009" x2="796.1898" y2="79.4009">
			<stop  offset="0" style="stop-color:#C51C94"/>
			<stop  offset="1" style="stop-color:#EE0171"/>
		</linearGradient>
		<path fill="url(#SVGID_1_)" d="M499.075,53.463c7.105,0,13.514,2.739,19.046,8.141l1.033,1.009l10.12-9.602l-1.089-1.089
			c-8.348-8.346-18.142-12.577-29.11-12.577c-10.903,0-20.423,3.991-28.295,11.863c-7.805,7.804-11.762,17.29-11.762,28.192
			c0,10.896,3.918,20.446,11.669,28.406c7.868,7.73,17.419,11.65,28.388,11.65c10.829,0,20.19-3.954,28.13-11.752l1.67-1.997
			l-1.375-1.244l-8.496-8.28l-0.883,1.014c-5.599,5.47-12.006,8.243-19.046,8.243c-7.041,0-13.243-2.567-18.408-7.604
			c-5.064-5.192-7.632-11.395-7.632-18.436c0-7.04,2.567-13.242,7.611-18.414C485.701,55.994,491.901,53.463,499.075,53.463z
			 M534.5,117.5h14v-76h-14V117.5z M584.447,57.194c-8.471,0-15.83,3.102-21.868,9.212c-6.112,6.111-9.212,13.503-9.212,21.971
			c0,8.472,3.102,15.831,9.205,21.862c6.044,6.116,13.403,9.218,21.875,9.218c8.466,0,15.858-3.1,21.965-9.206
			c6.116-6.045,9.218-13.404,9.218-21.874c0-8.465-3.1-15.857-9.212-21.971C600.305,60.293,592.912,57.194,584.447,57.194z
			 M596.545,100.474c-3.343,3.342-7.3,4.967-12.098,4.967c-4.8,0-8.757-1.625-12.098-4.967c-3.342-3.341-4.966-7.298-4.966-12.097
			s1.624-8.756,4.966-12.098c3.343-3.342,7.3-4.967,12.098-4.967c4.796,0,8.754,1.625,12.098,4.967
			c3.342,3.343,4.967,7.301,4.967,12.098C601.512,93.175,599.887,97.131,596.545,100.474z M649.421,71.313
			c5.36,0,9.855,2.26,13.742,6.908l0.852,1.02l11.752-7.621l-0.978-1.287c-3.116-4.104-6.939-7.353-11.365-9.654
			c-4.449-2.312-9.16-3.484-14.003-3.484c-8.471,0-15.83,3.102-21.868,9.212c-6.112,6.111-9.212,13.504-9.212,21.971
			c0,8.472,3.102,15.831,9.205,21.862c6.044,6.116,13.403,9.218,21.875,9.218c4.835,0,9.487-1.1,13.829-3.27
			c4.334-2.167,8.011-5.213,10.928-9.054l1.589-2.134l-1.754-1.124l-9.998-6.463l-0.851,1.016
			c-3.954,4.719-8.449,7.012-13.743,7.012c-4.8,0-8.757-1.625-12.098-4.967c-3.342-3.341-4.966-7.298-4.966-12.097
			s1.624-8.756,4.966-12.098C640.666,72.937,644.623,71.313,649.421,71.313z M736.081,59.5h-19.758L694.5,80.369V41.5h-14v76h14
			v-17.486l7.065-6.936l16.302,24.422h16.72L712.13,82.996L736.081,59.5z M774.234,84.713l-0.091-0.057
			c-0.447-0.279-1.059-0.66-17.517-3.766c-4.625-0.981-6.971-2.547-6.971-4.652c0-0.984,0.31-2.43,2.993-3.631
			c1.902-0.859,4.234-1.295,6.931-1.295c1.461,0,2.771,0.111,3.895,0.33c1.108,0.216,2.168,0.543,3.126,0.961
			c1.979,0.911,2.899,2.422,2.899,4.757v1.14h14v-1.14c0-6.764-2.742-12.025-8.258-15.63c-4.516-3.01-9.774-4.536-15.692-4.536
			s-11.194,1.526-15.694,4.525c-5.462,3.542-8.224,8.427-8.224,14.519c0,7.782,3.582,13.158,10.667,15.99
			c0.401,0.15,1.381,0.443,5.223,1.238c2.79,0.579,6.773,1.379,11.927,2.395c4.627,0.984,6.974,2.516,6.974,4.551
			c0,1.244,0,5.028-10.842,5.028c-1.539,0-2.943-0.112-4.172-0.333c-1.233-0.222-2.482-0.523-3.473-0.896
			c-2.263-0.861-3.436-2.425-3.436-4.921V97.5h-14v1.791c0,6.917,3.061,12.254,8.891,15.869c4.707,2.852,10.173,4.297,16.134,4.297
			c5.885,0,11.351-1.442,16.228-4.31c5.745-3.608,8.672-8.565,8.672-14.735C784.424,92.859,781.005,87.579,774.234,84.713z"/>
	</g>
</g>
</svg>
